<?xml version="1.0" encoding="utf-8"?>
<!-- Generator: Adobe Illustrator 24.2.0, SVG Export Plug-In . SVG Version: 6.00 Build 0)  -->
<svg version="1.1" id="Layer_1" xmlns="http://www.w3.org/2000/svg" xmlns:xlink="http://www.w3.org/1999/xlink" x="0px" y="0px"
	 viewBox="0 0 28.3 28.3" style="enable-background:new 0 0 28.3 28.3;" xml:space="preserve">
<style type="text/css">
	.st0{fill:#122538;}
</style>
<g id="Layer_2_1_">
	<g id="Layer_1-2">
		<polygon class="st0" points="10.9,19.5 6.3,14 7.9,12.7 11.2,16.8 20.6,9.4 21.8,10.9 		"/>
		<path class="st0" d="M14.1,28.3C6.3,28.3,0,22,0,14.1S6.3,0,14.1,0s14.1,6.3,14.1,14.1C28.3,22,22,28.3,14.1,28.3z M14.1,2
			C7.4,2,2,7.4,2,14.1s5.4,12.1,12.1,12.1s12.1-5.4,12.1-12.1l0,0C26.3,7.4,20.9,2,14.1,2z"/>
	</g>
</g>
</svg>
